<svg width="32" height="32" viewBox="0 0 32 32" fill="none" xmlns="http://www.w3.org/2000/svg">
  <defs>
    <linearGradient id="sunGradient" x1="0%" y1="0%" x2="100%" y2="100%">
      <stop offset="0%" style="stop-color:#FFD700;stop-opacity:1" />
      <stop offset="100%" style="stop-color:#FFA500;stop-opacity:1" />
    </linearGradient>
    <linearGradient id="cloudGradient" x1="0%" y1="0%" x2="100%" y2="100%">
      <stop offset="0%" style="stop-color:#E6F3FF;stop-opacity:1" />
      <stop offset="100%" style="stop-color:#B3D9FF;stop-opacity:1" />
    </linearGradient>
  </defs>
  
  <!-- Sun -->
  <circle cx="22" cy="10" r="6" fill="url(#sunGradient)" />
  
  <!-- Sun rays -->
  <g stroke="#FFD700" stroke-width="2" stroke-linecap="round">
    <line x1="22" y1="2" x2="22" y2="4" />
    <line x1="28.5" y1="6.5" x2="27.1" y2="7.9" />
    <line x1="30" y1="10" x2="28" y2="10" />
    <line x1="28.5" y1="13.5" x2="27.1" y2="12.1" />
    <line x1="16.9" y1="12.1" x2="15.5" y2="13.5" />
    <line x1="14" y1="10" x2="16" y2="10" />
    <line x1="16.9" y1="7.9" x2="15.5" y2="6.5" />
  </g>
  
  <!-- Cloud -->
  <path d="M8 18c-3.3 0-6 2.7-6 6s2.7 6 6 6h12c2.8 0 5-2.2 5-5 0-2.8-2.2-5-5-5-0.6 0-1.2 0.1-1.7 0.3-1.2-2.3-3.6-3.9-6.3-3.9-2.2 0-4.1 1-5.4 2.5C6.4 18.3 6.2 18 6 18z" fill="url(#cloudGradient)" stroke="#4A90E2" stroke-width="1"/>
</svg> 